<svg width="256" height="256" viewBox="0 0 256 256" fill="none" xmlns="http://www.w3.org/2000/svg">
<rect width="256" height="256" fill="white"/>
<path fill-rule="evenodd" clip-rule="evenodd" d="M107.157 141C103.787 141 100.549 142.308 98.1258 144.649L58.9713 182.462C59.2655 182.72 59.6348 183.043 60.0704 183.421C61.281 184.474 63.0032 185.959 65.0486 187.688C68.49 190.599 72.8403 194.197 77.2048 197.592C77.3721 197.274 77.6116 196.82 77.9146 196.25C78.5462 195.061 79.4537 193.367 80.5583 191.343C82.7669 187.298 85.7659 181.931 88.9235 176.654C92.0765 171.386 95.4056 166.177 98.2731 162.465C99.7009 160.616 101.052 159.088 102.239 158.111C102.829 157.625 103.435 157.228 104.034 157.018C104.647 156.803 105.363 156.751 106.014 157.143C107.062 157.771 109.169 158.284 112.071 158.634C114.918 158.977 118.366 159.148 121.964 159.185C129.163 159.26 136.861 158.803 141.362 158.175C159.953 155.581 167.306 147.473 170.03 142.969C170.334 142.467 170.275 142.014 170.046 141.672C169.801 141.306 169.309 141 168.641 141H107.157ZM29.1947 211.219L57.5277 183.857C57.8417 184.132 58.2563 184.494 58.7583 184.931C59.9745 185.988 61.7037 187.479 63.7571 189.216C67.862 192.687 73.271 197.147 78.4705 201.086C83.6382 205 88.6967 208.476 92.0691 209.902C92.646 210.146 93.2019 210.343 93.7211 210.469L69.7055 241.893C69.3701 242.332 69.454 242.959 69.8928 243.295C70.3316 243.63 70.9592 243.546 71.2945 243.107L96.6676 209.907C97.1479 209.361 97.2554 208.628 97.2016 207.929C97.1415 207.148 96.871 206.21 96.4255 205.121C95.0681 201.805 92.7076 199.066 90.7288 197.177C89.7336 196.227 88.821 195.479 88.1553 194.967C87.8221 194.711 87.5499 194.513 87.3591 194.378C87.2636 194.31 87.1884 194.258 87.136 194.223L87.0987 194.197L87.0748 194.181L87.0577 194.17L87.0525 194.166L87.0508 194.165L87.0502 194.165C87.0499 194.165 87.0497 194.165 86.5 195L87.0497 194.165C86.5884 193.861 85.9682 193.989 85.6646 194.45C85.3611 194.912 85.4889 195.531 85.95 195.835L85.9503 195.835L85.9517 195.836L85.9622 195.843L86.0098 195.875C86.0529 195.905 86.1185 195.95 86.204 196.011C86.3751 196.132 86.6257 196.314 86.9359 196.552C87.5569 197.03 88.4135 197.732 89.3478 198.624C91.2277 200.419 93.3673 202.93 94.5745 205.879C94.9871 206.887 95.1706 207.603 95.2075 208.082C95.2334 208.419 95.1828 208.55 95.1633 208.586C95.1321 208.601 95.0004 208.651 94.6561 208.611C94.2216 208.561 93.6198 208.386 92.848 208.06C89.739 206.745 84.8684 203.423 79.6781 199.492C79.3901 199.273 79.1015 199.054 78.8125 198.833L78.9543 198.562C79.121 198.245 79.3665 197.78 79.6808 197.188C80.3094 196.005 81.2133 194.317 82.3138 192.302C84.5153 188.269 87.5005 182.927 90.6396 177.681C93.7833 172.428 97.0634 167.303 99.856 163.687C101.258 161.871 102.5 160.487 103.51 159.655C104.019 159.236 104.414 159.004 104.696 158.905C104.831 158.858 104.913 158.851 104.952 158.852C104.97 158.853 104.979 158.855 104.981 158.855C104.983 158.856 104.984 158.856 104.986 158.857C106.438 159.729 108.941 160.271 111.831 160.62C114.778 160.975 118.305 161.147 121.943 161.185C129.213 161.261 137.014 160.801 141.638 160.156C160.801 157.482 168.693 149.044 171.741 144.004C172.451 142.832 172.365 141.542 171.708 140.559C171.066 139.6 169.929 139 168.641 139H107.157C103.269 139 99.5329 140.509 96.7364 143.21L27.8053 209.781C27.4081 210.164 27.397 210.797 27.7807 211.195C28.1643 211.592 28.7974 211.603 29.1947 211.219Z" fill="#959595"/>
<path fill-rule="evenodd" clip-rule="evenodd" d="M166.372 51.8058C161.213 56.9649 161.24 63.0743 168.354 70.1884C174.843 76.6779 181.632 77.3296 186.763 72.1977L186.872 72.0891C191.922 67.0386 191.569 60.006 185.107 53.5436C178.672 47.1084 171.558 46.6196 166.48 51.6972L166.372 51.8058ZM178.726 64.1061C177.368 65.4638 175.848 65.3008 174.545 63.9975C173.241 62.6942 173.105 61.2007 174.463 59.8431L174.572 59.7345C176.065 58.2411 177.586 58.2954 178.943 59.653C180.247 60.9564 180.328 62.5041 178.835 63.9975L178.726 64.1061Z" fill="#3A3A42"/>
<path d="M147.048 91.503C135.758 91.503 131.957 87.8934 131.189 81.5574H143.861V81.5958C144.168 82.9398 146.049 83.439 148.008 83.439C149.813 83.439 150.542 83.055 150.542 82.3638C150.542 81.4038 149.16 81.1734 143.285 80.6358C135.95 80.0214 131.803 77.7942 131.803 72.1878C131.803 65.967 137.179 62.2038 146.28 62.2038C155.112 62.2038 160.104 64.9302 161.717 71.9958H149.813C149.467 70.8054 148.123 70.191 145.934 70.191C143.937 70.191 143.361 70.767 143.361 71.3814C143.361 72.1878 144.552 72.4182 150.273 72.9174C157.531 73.5702 162.024 75.6054 162.024 81.6342C162.024 87.471 157.531 91.503 147.048 91.503Z" fill="#3A3A42"/>
<path d="M130.04 73.263H122.245V90.735H110.648V73.263H103.007V63.087H130.04V73.263Z" fill="#3A3A42"/>
<path d="M69.6665 77.5255C69.6665 87.1639 75.3113 91.4263 85.4489 91.4263C94.9337 91.4263 101.577 87.6247 101.846 78.3703V78.1015H89.4041V78.2935C89.2889 80.1367 87.9833 81.4807 85.6025 81.4807C82.9145 81.4807 81.5321 80.0215 81.5321 77.2567V76.6807C81.5321 73.9927 82.9913 72.3799 85.6409 72.3799C88.0601 72.3799 89.2889 73.7623 89.4041 75.5671V75.7591H101.846V75.4135C101.538 66.5815 95.0873 62.3959 85.6793 62.3959C76.0409 62.3959 69.6665 67.5799 69.6665 76.6039V77.5255Z" fill="#3A3A42"/>
<path fill-rule="evenodd" clip-rule="evenodd" d="M59.3516 90.735L58.2764 87.279H49.5596L48.4844 90.735H36.734L47.4092 63.087H60.6572L71.102 90.735H59.3516ZM53.9372 73.455L52.0172 79.599H55.8956L53.9756 73.4934L53.9372 73.3782V73.455Z" fill="#3A3A42"/>
<path d="M231.694 126.735V117.711H216.717V115.637H230.772V109.685H216.717V107.727H231.386V99.087H205.812V126.735H231.694Z" fill="#3A3A42"/>
<path d="M187.3 127.426C177.163 127.426 171.518 123.164 171.518 113.525V112.604C171.518 103.58 177.892 98.3959 187.531 98.3959C196.939 98.3959 203.39 102.581 203.697 111.413V111.759H191.256V111.567C191.14 109.762 189.912 108.38 187.492 108.38C184.843 108.38 183.384 109.993 183.384 112.681V113.257C183.384 116.021 184.766 117.481 187.454 117.481C189.835 117.481 191.14 116.137 191.256 114.293V114.101H203.697V114.37C203.428 123.625 196.785 127.426 187.3 127.426Z" fill="#3A3A42"/>
<path d="M147.001 126.735H169.849V116.521H163.974V109.34H169.849V99.087H147.001V109.34H152.838V116.521H147.001V126.735Z" fill="#3A3A42"/>
<path d="M136.175 126.735H122.888L112.674 99.087H124.731L129.647 114.485L134.562 99.087H146.658L136.175 126.735Z" fill="#3A3A42"/>
<path fill-rule="evenodd" clip-rule="evenodd" d="M94.8845 119.593H97.8797C99.9917 119.593 100.644 120.13 100.644 122.165V124.892C100.644 125.621 100.913 126.389 101.604 126.735H113.585C112.856 126.351 112.395 125.583 112.395 124.661V122.319C112.395 118.325 111.55 116.29 108.401 115.33C111.435 114.025 112.932 111.759 112.932 108.38C112.932 102.236 109.515 99.087 98.9549 99.087H83.7869V126.735H94.8845V119.593ZM94.8845 107.842H99.1853C100.798 107.842 101.489 108.533 101.489 109.609C101.489 110.684 100.644 111.413 99.1853 111.413H94.8845V107.842Z" fill="#3A3A42"/>
<path d="M81.281 117.711V126.735H55.3994V99.087H80.9738V107.727H66.305V109.685H80.3594V115.637H66.305V117.711H81.281Z" fill="#3A3A42"/>
<path d="M22.5152 117.557C23.2832 123.893 27.0848 127.503 38.3744 127.503C48.8576 127.503 53.3504 123.471 53.3504 117.634C53.3504 111.605 48.8576 109.57 41.6 108.917C35.8784 108.418 34.688 108.188 34.688 107.381C34.688 106.767 35.264 106.191 37.2608 106.191C39.4496 106.191 40.7936 106.805 41.1392 107.996H53.0432C51.4304 100.93 46.4384 98.2038 37.6064 98.2038C28.5056 98.2038 23.1296 101.967 23.1296 108.188C23.1296 113.794 27.2768 116.021 34.6112 116.636C40.4864 117.173 41.8688 117.404 41.8688 118.364C41.8688 119.055 41.1392 119.439 39.3344 119.439C37.376 119.439 35.4944 118.94 35.1872 117.596V117.557H22.5152Z" fill="#3A3A42"/>
<path d="M201.205 88.4854L197.186 84.4668L190.398 91.255L182.849 83.7065L189.638 76.9183L186.977 74.2573L193.466 67.7678L196.127 70.4287L197.24 69.3155C202.074 64.4823 205.794 64.8352 211.686 70.7274L215.379 74.4202L209.459 80.3396L206.961 77.8415C205.685 76.5653 204.979 76.6739 203.676 77.9773L207.694 81.9959L201.205 88.4854Z" fill="#3A3A42"/>
</svg>
