<svg width="111" height="46" viewBox="0 0 111 46" fill="none" xmlns="http://www.w3.org/2000/svg">
<path d="M100.123 15.5794C98.6864 15.9644 97.2377 15.5166 96.9781 14.5477C96.8417 14.0387 97.0875 13.5768 97.5637 13.4492C98.0071 13.3304 98.3474 13.5824 98.5945 14.1762C98.8658 14.8603 99.264 15 99.8223 14.8504C100.652 14.6282 100.849 14.0826 100.655 13.3601C100.492 12.7526 100.215 12.3428 99.0653 11.4013C98.1473 10.6353 97.7064 10.0407 97.5304 9.38384C97.1366 7.91419 98.1112 6.52667 99.6301 6.11967C99.7779 6.08007 99.9279 6.04868 100.074 6.03592C99.3738 5.58997 98.9953 5.03139 98.8347 4.43203C98.5861 3.50426 98.9898 2.74489 99.9915 2.4765C101.478 2.07831 103.103 3.08601 104.515 2.70762C104.893 2.60642 105.332 2.37429 105.506 2.20434C105.487 2.13045 105.461 2.06697 105.441 1.99307L105.311 1.60558C105.081 0.910483 105.326 0.413578 105.925 0.252981C106.377 0.131983 106.762 0.354368 106.89 0.830569C106.991 1.20825 106.96 1.71804 106.714 2.04795L106.546 4.44251L107.958 4.06412L107.909 4.83401L106.596 5.186L105.994 12.2023C105.955 12.5823 105.955 12.7143 105.982 12.8128C106.017 12.9442 106.092 12.9944 106.207 12.9636C106.519 12.88 106.921 12.2444 107.474 10.9258L107.932 11.0934C107.231 12.9443 106.494 13.8722 105.468 14.1472C104.68 14.3584 104.224 14.1021 104.022 13.3468C103.903 12.9034 103.891 12.3346 103.979 11.2815L104.461 5.75799L103.344 6.05719L103.385 5.2895L104.658 4.9485C105.182 4.47371 105.607 3.66449 105.616 2.97569C105.299 3.23669 104.803 3.51927 104.31 3.65126C103.161 3.95926 102.184 3.40249 101.133 3.68409C100.395 3.88208 100.082 4.42342 100.221 4.94067C100.324 5.32656 100.625 5.69469 101.602 6.18959C102.121 6.38498 102.512 6.72891 102.636 7.18869C102.774 7.70594 102.537 8.16561 102.052 8.29541C101.601 8.41641 101.256 8.14798 101.009 7.5542C100.74 6.87832 100.368 6.74024 99.9496 6.85244C99.3831 7.00424 99.0788 7.54337 99.2548 8.2002C99.3956 8.72566 99.8293 9.26063 100.608 9.93207C101.79 10.9617 102.224 11.5317 102.407 12.2131C102.812 13.7238 101.823 15.124 100.123 15.5794Z" fill="#1D43CB"/>
<path d="M95.1394 5.67737C94.5155 5.84457 93.9861 5.5112 93.8035 4.82974C93.6121 4.11544 94.0093 3.33145 94.6415 3.16205C95.2326 3.00365 95.8408 3.36868 96.0014 3.96803C96.1884 4.66591 95.7634 5.51017 95.1394 5.67737ZM94.8699 16.987C94.0981 17.1938 93.5382 16.8774 93.3512 16.1796C93.272 15.884 93.2161 15.3798 93.2779 14.888L93.9772 9.02474C94.0033 8.85935 93.9791 8.76904 93.9615 8.70336C93.9307 8.58841 93.86 8.55455 93.7533 8.58315C93.4331 8.66894 93.0198 9.22847 92.7617 9.94003L92.308 9.69199C92.7994 8.50435 93.4736 7.7693 94.3603 7.5317C95.1814 7.31171 95.7638 7.61325 95.9552 8.32755C96.0322 8.61491 96.0798 9.12133 96.0262 9.61088L95.3153 15.3981C95.2953 15.553 95.3107 15.6105 95.3239 15.6598C95.3591 15.7911 95.4528 15.8452 95.5759 15.8122C95.8715 15.733 96.1808 15.2454 96.7848 13.8868L97.235 14.0565C96.5719 15.8182 95.8551 16.723 94.8699 16.987Z" fill="#1D43CB"/>
<path d="M90.2397 18.2276C89.5419 18.4146 89.115 18.1682 88.9566 17.5771C88.8114 17.0352 88.8564 16.152 89.2048 11.2451L89.7103 4.52734L88.5119 4.61967L88.3658 4.27161L91.8963 3.32563L91.1291 12.3838C90.8726 15.4005 90.7941 16.6183 90.8557 16.8482C90.8975 17.0042 90.954 17.0507 91.0771 17.0177C91.3645 16.9407 91.7219 16.3697 92.3024 15.0878L92.7526 15.2575C92.0873 17.011 91.2825 17.9482 90.2397 18.2276Z" fill="#1D43CB"/>
<path d="M85.7924 19.4193C84.996 19.6327 84.5402 19.3765 84.3378 18.6211C84.219 18.1778 84.1991 17.6111 84.2948 16.5559L84.7771 11.0323L83.6523 11.3337L83.7012 10.5638L84.8506 10.2558L85.0726 7.63563L87.2316 6.79313L86.9771 9.68605L88.2662 9.34066L88.2173 10.1105L86.9036 10.4625L86.302 17.4788C86.2713 17.8566 86.2714 17.9886 86.2978 18.0871C86.333 18.2185 86.4081 18.2688 86.5149 18.2402C86.8351 18.1544 87.2367 17.5188 87.798 16.198L88.2483 16.3677C87.5557 18.2165 86.8023 19.1487 85.7924 19.4193Z" fill="#1D43CB"/>
<path d="M81.5275 9.32471C80.9035 9.4919 80.3742 9.15854 80.1916 8.47708C80.0002 7.76278 80.3974 6.97878 81.0296 6.80939C81.6207 6.65099 82.2289 7.01602 82.3895 7.61537C82.5765 8.31325 82.1515 9.15751 81.5275 9.32471ZM81.258 20.6343C80.4862 20.8411 79.9263 20.5248 79.7393 19.8269C79.6601 19.5313 79.6042 19.0271 79.666 18.5354L80.3653 12.6721C80.3914 12.5067 80.3672 12.4164 80.3496 12.3507C80.3188 12.2357 80.2481 12.2019 80.1414 12.2305C79.8212 12.3163 79.4079 12.8758 79.1498 13.5874L78.6961 13.3393C79.1875 12.1517 79.8617 11.4166 80.7484 11.179C81.5695 10.959 82.1518 11.2606 82.3432 11.9749C82.4202 12.2623 82.4679 12.7687 82.4143 13.2582L81.7034 19.0454C81.6834 19.2004 81.6988 19.2579 81.712 19.3071C81.7472 19.4385 81.8408 19.4926 81.964 19.4596C82.2596 19.3804 82.5689 18.8927 83.1728 17.5341L83.6231 17.7038C82.96 19.4655 82.2432 20.3703 81.258 20.6343Z" fill="#1D43CB"/>
<path d="M73.436 22.7302C72.3522 23.0206 71.4517 22.3203 71.069 20.8917C70.2814 17.9524 72.015 13.5191 74.1826 12.9383C74.864 12.7557 75.3772 12.8646 75.8897 13.2993L75.9507 12.6406L77.9459 12.106L77.3621 20.3054C77.3394 20.5491 77.4261 20.6755 77.5903 20.6315C77.853 20.5611 78.0836 20.1737 78.7914 18.6113L79.2416 18.781C78.5092 20.7109 77.8778 21.54 76.9664 21.7842C76.2603 21.9734 75.8045 21.7172 75.6219 21.0357C75.5031 20.5924 75.5271 20.0579 75.6469 19.093L75.55 19.0926C74.9812 21.4362 74.3473 22.486 73.436 22.7302ZM73.7957 21.8066C74.4361 21.6351 75.4237 18.3257 75.6683 15.4618C75.7348 14.7576 75.7197 14.4712 75.6449 14.1921C75.5107 13.6912 75.2164 13.4797 74.8141 13.5875C73.599 13.9131 72.5764 18.7014 73.2144 21.0824C73.3508 21.5915 73.5658 21.8682 73.7957 21.8066Z" fill="#1D43CB"/>
<path d="M61.809 25.8457C60.5857 26.1735 58.8381 25.8585 59.0351 22.981L59.3542 18.2932C59.3703 18.0249 59.3705 17.796 59.2063 17.84C58.9518 17.9082 58.3245 18.9827 58.1529 19.6886L57.6888 19.4346C58.1198 18.0871 58.902 17.0328 59.994 16.7402C60.6508 16.5642 61.0234 16.7723 61.1884 17.3881C61.2984 17.7986 61.2243 18.5401 61.1821 19.4666L61.0153 22.7848C60.9161 24.9762 61.6503 24.9906 62.2579 24.8278C62.7341 24.7002 63.2422 24.2649 63.7132 23.4611C63.4977 23.1492 63.2924 22.7114 63.1516 22.186C62.408 19.4109 63.6723 15.7546 65.5524 15.2508C66.2421 15.066 66.7462 15.3709 66.942 16.1016C67.2478 17.2429 66.6895 19.2316 65.2937 22.2984C65.7665 23.4389 66.3467 23.7322 66.8968 23.5848C67.6685 23.378 68.3629 22.1272 68.7264 20.6922C69.0049 19.5968 69.0818 18.4058 68.8398 17.5027C68.6792 16.9033 68.339 16.2905 68.218 15.8389C68.031 15.141 68.2701 14.5226 68.8612 14.3642C69.3949 14.2212 69.8722 14.5245 70.1735 15.6493C70.5541 17.0697 70.3737 19.0892 69.7314 20.8629C69.0688 22.6596 67.9504 24.2001 66.4643 24.5983C65.5858 24.8337 64.8376 24.603 64.2577 24.0808C63.5978 24.9352 62.7614 25.5905 61.809 25.8457ZM64.97 21.3203C65.7984 19.4528 66.2906 17.5786 65.9386 16.2649C65.844 15.9119 65.7469 15.7795 65.5991 15.8191C64.8027 16.0325 64.4004 18.4722 64.8522 20.8151C64.8864 21.0084 64.937 21.1972 64.97 21.3203Z" fill="#1D43CB"/>
<path d="M50.9177 28.764C49.6451 29.105 48.4932 28.2872 48.0818 26.7519C47.2084 23.4924 49.0042 19.6849 51.7793 18.9413C52.9287 18.6333 53.7472 18.9948 53.9914 19.9061C54.361 21.2855 53.0415 22.7654 50.0692 24.2834C49.9439 25.2938 49.9636 26.2213 50.144 26.8945C50.3442 27.6417 50.7356 27.9856 51.2364 27.8514C51.9917 27.649 52.6336 26.8258 53.351 25.1024L53.7816 25.3302C53.0503 27.3302 52.1493 28.434 50.9177 28.764ZM50.1691 23.6055C51.5414 22.8154 52.5589 21.1611 52.2751 20.102C52.1915 19.79 52.0414 19.6894 51.8197 19.7488C51.1546 19.927 50.6674 21.36 50.2611 23.1936L50.1691 23.6055Z" fill="#1D43CB"/>
<path d="M45.7127 30.1586C44.9738 30.3566 44.53 30.0796 44.332 29.3406C44.1956 28.8316 44.18 28.1494 44.295 27.265L44.8798 22.682C44.9237 22.3534 44.9174 22.0999 44.8712 21.9275C44.8184 21.7304 44.7099 21.6539 44.5785 21.6891C43.9956 21.8453 42.8212 25.0815 42.6008 27.1821L42.21 30.9124L40.2231 31.4448L41.2505 17.5121L40.0521 17.6044L39.906 17.2564L43.3051 16.3456L42.6145 24.4417L42.7114 24.4421C43.3519 22.0705 44.0171 21.0387 45.0434 20.7638C45.889 20.5372 46.5126 20.9597 46.7854 21.9777C46.9086 22.4375 46.9355 22.9319 46.8671 23.399L46.2141 28.2203C46.1816 28.493 46.177 28.7055 46.21 28.8286C46.2451 28.96 46.3202 29.0103 46.427 28.9817C46.7143 28.9047 47.0575 28.3463 47.6773 26.9483L48.1358 27.1158C47.4426 28.9295 46.739 29.8836 45.7127 30.1586Z" fill="#1D43CB"/>
<path d="M37.3326 32.4041C36.5362 32.6175 36.0804 32.3612 35.878 31.6059C35.7592 31.1625 35.7393 30.5958 35.835 29.5406L36.3173 24.0171L35.1925 24.3185L35.2414 23.5486L36.3909 23.2406L36.6128 20.6204L38.7718 19.7779L38.5174 22.6708L39.8064 22.3254L39.7575 23.0953L38.4438 23.4473L37.8423 30.4635C37.8115 30.8414 37.8117 30.9733 37.8381 31.0719C37.8733 31.2032 37.9483 31.2535 38.0551 31.2249C38.3753 31.1391 38.777 30.5035 39.3382 29.1827L39.7885 29.3525C39.0959 31.2012 38.3425 32.1335 37.3326 32.4041Z" fill="#1D43CB"/>
<path d="M29.4684 34.5113C28.6966 34.7181 28.249 34.4596 28.0466 33.7043C27.908 33.187 27.8984 32.4944 28.0118 31.6368L28.5943 27.0456C28.6339 26.7006 28.632 26.4635 28.5858 26.2911C28.5352 26.1023 28.4245 26.0176 28.2931 26.0528C27.5542 26.2508 26.3683 29.5428 26.1594 31.5876L25.7686 35.3179L23.7735 35.8524L24.3369 27.676C24.3378 27.4822 24.3464 27.3831 24.3288 27.3174C24.3046 27.2271 24.2548 27.2052 24.1891 27.2228C23.9346 27.291 23.3073 28.3655 23.1357 29.0715L22.6716 28.8174C23.1025 27.47 23.8848 26.4156 24.9768 26.123C25.6336 25.947 26.0062 26.1551 26.1712 26.7709C26.2812 27.1814 26.2906 27.7421 26.1649 28.8494L26.2618 28.8498C26.9105 26.476 27.5757 25.4442 28.6841 25.1472C29.5954 24.903 30.219 25.3255 30.4918 26.3436C30.615 26.8034 30.6501 27.2956 30.5817 27.7627L29.9287 32.584C29.8962 32.8567 29.8915 33.0691 29.9245 33.1923C29.9597 33.3236 30.0348 33.3739 30.1498 33.3431C30.4207 33.2705 30.6818 32.7342 31.2359 31.3537L31.6944 31.5213C31.0434 33.3941 30.4126 34.2583 29.4684 34.5113Z" fill="#1D43CB"/>
<path d="M20.9998 25.543C20.3758 25.7102 19.8465 25.3769 19.6639 24.6954C19.4725 23.9811 19.8696 23.1971 20.5018 23.0277C21.093 22.8693 21.7012 23.2343 21.8618 23.8337C22.0488 24.5316 21.6238 25.3758 20.9998 25.543ZM20.7303 36.8527C19.9585 37.0595 19.3985 36.7431 19.2115 36.0452C19.1323 35.7497 19.0764 35.2454 19.1383 34.7537L19.8376 28.8904C19.8636 28.725 19.8394 28.6347 19.8218 28.569C19.791 28.4541 19.7204 28.4202 19.6136 28.4488C19.2934 28.5346 18.8802 29.0941 18.622 29.8057L18.1684 29.5577C18.6597 28.37 19.334 27.635 20.2207 27.3974C21.0417 27.1774 21.6241 27.4789 21.8155 28.1932C21.8925 28.4806 21.9402 28.987 21.8866 29.4765L21.1757 35.2637C21.1556 35.4187 21.171 35.4762 21.1842 35.5254C21.2194 35.6568 21.3131 35.7109 21.4363 35.6779C21.7318 35.5987 22.0412 35.111 22.6451 33.7524L23.0954 33.9222C22.4322 35.6838 21.7155 36.5887 20.7303 36.8527Z" fill="#1D43CB"/>
<path d="M14.4677 38.5307C12.9159 38.9465 11.7005 38.1546 11.2077 36.3154C10.374 33.2037 11.9876 29.6034 14.5739 28.9104C16.1256 28.4946 17.3268 29.2991 17.8218 31.1465C18.6468 34.2254 17.0539 37.8377 14.4677 38.5307ZM14.2034 37.7743C15.3118 37.4773 16.2942 32.999 15.6584 30.6262C15.4758 29.9447 15.1912 29.5722 14.8299 29.669C13.7133 29.9682 12.7413 34.4525 13.3749 36.8171C13.5575 37.4986 13.8421 37.8711 14.2034 37.7743Z" fill="#1D43CB"/>
<path d="M9.80033 28.5439C9.16813 28.7133 8.64703 28.3778 8.46443 27.6963C8.27303 26.982 8.66194 26.2002 9.31056 26.0264C9.89349 25.8702 10.5099 26.233 10.6705 26.8324C10.8575 27.5303 10.4243 28.3767 9.80033 28.5439ZM6.69184 44.891C5.60807 45.1814 4.37572 44.8516 4.12053 43.8992C3.98853 43.4066 4.17631 42.9251 4.70177 42.7843C5.78554 42.4939 5.72427 44.3671 6.66186 44.0894C7.4024 43.8646 7.75961 42.6689 8.06741 38.1689L8.4903 31.9309C8.49997 31.7699 8.48398 31.6774 8.46638 31.6117C8.43558 31.4968 8.36491 31.4629 8.25817 31.4915C7.93797 31.5773 7.5247 32.1368 7.26657 32.8484L6.81291 32.6004C7.29606 31.4149 7.9785 30.6777 8.87343 30.4379C9.67805 30.2223 10.2604 30.5238 10.4518 31.2381C10.5288 31.5255 10.5519 32.0385 10.5229 32.5215L10.1322 38.2228C9.84009 42.5514 8.57201 44.3872 6.69184 44.891Z" fill="#1D43CB"/>
</svg>
