<svg width="54" height="27" viewBox="0 0 54 27" fill="none" xmlns="http://www.w3.org/2000/svg">
<path d="M49.0823 9.79326L48.7605 4.88118C48.631 2.82151 48.5932 1.92524 48.5917 1.59125C48.6052 0.918863 48.9309 0.426787 49.4646 0.283789C50.0886 0.116592 50.6623 0.517249 50.8625 1.26439C51.0121 1.8227 50.9418 2.54553 50.5817 4.05879C50.1007 6.10605 49.8624 7.87706 49.8294 9.59307L49.0823 9.79326ZM49.66 13.9856C49.0196 14.1572 48.4213 13.7631 48.2255 13.0324C48.0077 12.2196 48.4403 11.3381 49.171 11.1423C49.836 10.9641 50.5029 11.3838 50.6899 12.0817C50.9011 12.8699 50.4072 13.7854 49.66 13.9856Z" fill="#959595"/>
<path d="M44.4696 15.3852C43.0327 15.7702 41.584 15.3224 41.3244 14.3536C41.188 13.8445 41.4338 13.3827 41.91 13.2551C42.3534 13.1363 42.6937 13.3883 42.9408 13.982C43.2121 14.6661 43.6103 14.8058 44.1686 14.6562C44.9979 14.434 45.1949 13.8885 45.0013 13.1659C44.8385 12.5584 44.5615 12.1486 43.4117 11.2071C42.4936 10.4411 42.0527 9.8465 41.8767 9.18967C41.4829 7.72001 42.4575 6.33249 43.9764 5.9255C45.2736 5.5779 46.7224 6.02569 46.982 6.99452C47.1206 7.51177 46.883 7.97144 46.3986 8.10123C45.947 8.22223 45.6023 7.9538 45.3552 7.36003C45.0861 6.68414 44.7147 6.54606 44.2959 6.65826C43.7294 6.81006 43.4251 7.3492 43.6011 8.00603C43.7419 8.53149 44.1756 9.06646 44.9539 9.7379C46.1362 10.7675 46.5705 11.3375 46.7531 12.019C47.1579 13.5297 46.1691 14.9298 44.4696 15.3852Z" fill="#959595"/>
<path d="M38.2752 17.0449C36.8384 17.4299 35.3896 16.9821 35.1301 16.0133C34.9937 15.5043 35.2395 15.0424 35.7157 14.9148C36.1591 14.796 36.4994 15.048 36.7465 15.6418C37.0178 16.3259 37.416 16.4656 37.9743 16.316C38.8036 16.0938 39.0006 15.5482 38.807 14.8257C38.6442 14.2181 38.3672 13.8083 37.2173 12.8669C36.2993 12.1009 35.8584 11.5062 35.6824 10.8494C35.2886 9.37974 36.2632 7.99222 37.7821 7.58523C39.0793 7.23763 40.5281 7.68542 40.7877 8.65424C40.9263 9.1715 40.6886 9.63117 40.2042 9.76096C39.7527 9.88196 39.4079 9.61353 39.1608 9.01976C38.8917 8.34387 38.5203 8.20579 38.1016 8.31799C37.5351 8.46979 37.2308 9.00892 37.4068 9.66575C37.5476 10.1912 37.9813 10.7262 38.7596 11.3976C39.9419 12.4272 40.3762 12.9972 40.5588 13.6787C40.9636 15.1894 39.9748 16.5895 38.2752 17.0449Z" fill="#959595"/>
<path d="M32.0452 18.7143C30.7726 19.0553 29.6207 18.2375 29.2093 16.7022C28.3359 13.4427 30.1317 9.63518 32.9068 8.8916C34.0562 8.5836 34.8747 8.94509 35.1189 9.85644C35.4884 11.2358 34.169 12.7157 31.1966 14.2337C31.0714 15.2441 31.0911 16.1716 31.2715 16.8448C31.4717 17.592 31.863 17.9359 32.3639 17.8017C33.1192 17.5993 33.761 16.7762 34.4784 15.0528L34.9091 15.2806C34.1778 17.2805 33.2768 18.3843 32.0452 18.7143ZM31.2966 13.5558C32.6688 12.7657 33.6864 11.1115 33.4026 10.0523C33.319 9.74033 33.1688 9.63976 32.9471 9.69916C32.2821 9.87736 31.7949 11.3103 31.3886 13.1439L31.2966 13.5558Z" fill="#959595"/>
<path d="M25.6279 20.4337C24.1747 20.8231 23.1267 19.9336 22.6933 18.3161C22.2423 16.633 22.6006 14.5218 23.5969 12.9525C24.3642 11.7437 25.3646 10.9125 26.3088 10.6595C27.5404 10.3295 28.6169 10.833 28.8875 11.8429C29.0261 12.3601 28.7885 12.8198 28.2958 12.9518C27.8607 13.0684 27.5144 12.8268 27.2607 12.2084C27.0092 11.5982 26.7351 11.3636 26.3821 11.4582C25.2901 11.7508 24.2033 16.3979 24.7885 18.5819C24.9887 19.329 25.3801 19.673 26.0287 19.4992C26.7922 19.2946 27.3339 18.5246 28.1126 16.7672L28.5515 16.9928C27.7661 19.0864 26.8266 20.1126 25.6279 20.4337Z" fill="#959595"/>
<path d="M19.1449 22.1709C17.6917 22.5603 16.6438 21.6707 16.2104 20.0532C15.7594 18.3701 16.1177 16.2589 17.1139 14.6896C17.8812 13.4808 18.8817 12.6496 19.8259 12.3966C21.0574 12.0666 22.1339 12.5701 22.4045 13.58C22.5431 14.0973 22.3055 14.5569 21.8129 14.6889C21.3777 14.8055 21.0314 14.5639 20.7777 13.9455C20.5262 13.3353 20.2522 13.1007 19.8991 13.1953C18.8071 13.4879 17.7204 18.1351 18.3055 20.319C18.5057 21.0662 18.8971 21.4101 19.5457 21.2363C20.3093 21.0317 20.851 20.2618 21.6296 18.5043L22.0685 18.73C21.2831 20.8236 20.3437 21.8497 19.1449 22.1709Z" fill="#959595"/>
<path d="M14.0862 23.5175C13.3965 23.7023 12.9116 23.4363 12.7378 22.7877C12.6256 22.3689 12.649 21.7995 12.7502 20.8308L12.6615 20.8281C11.9441 23.4051 11.426 24.2303 10.3422 24.5207C9.48015 24.7517 8.84614 24.3232 8.57334 23.3051C8.45014 22.8454 8.42547 22.3592 8.4917 21.8838L9.24427 16.6135C9.26274 16.4853 9.26038 16.3452 9.23618 16.2548C9.20978 16.1563 9.17034 16.1405 9.08002 16.1647C8.76803 16.2483 8.17225 17.1119 7.91852 17.8399L7.46267 17.5836C7.96149 16.2268 8.73467 15.3684 9.68707 15.1132C10.3685 14.9306 10.8244 15.1869 11.029 15.9505C11.1698 16.4759 11.1734 17.179 11.072 18.0157L10.5223 22.5981C10.4821 22.9081 10.4802 23.1638 10.5264 23.3362C10.577 23.525 10.6839 23.6284 10.8071 23.5954C11.505 23.4084 12.7362 19.6289 12.8866 17.1687L13.0727 14.3821L15.1499 13.8255L14.5301 21.5946C14.5014 21.8487 14.5071 22.0672 14.5423 22.1985C14.5775 22.3299 14.6526 22.3802 14.7593 22.3516C15.0221 22.2812 15.3652 21.7228 15.9992 20.3122L16.4517 20.4901C15.7208 22.3931 15.0468 23.2602 14.0862 23.5175Z" fill="#959595"/>
<path d="M5.07454 25.941C3.63772 26.326 2.18896 25.8782 1.92937 24.9094C1.79297 24.4004 2.0388 23.9385 2.51501 23.8109C2.95837 23.6921 3.29869 23.9441 3.54579 24.5379C3.81709 25.222 4.21531 25.3617 4.77362 25.2121C5.60286 24.9899 5.79987 24.4443 5.60628 23.7218C5.44348 23.1142 5.16648 22.7045 4.01663 21.763C3.09859 20.997 2.65767 20.4023 2.48167 19.7455C2.08788 18.2759 3.06247 16.8883 4.58139 16.4813C5.87862 16.1338 7.32739 16.5815 7.58698 17.5504C7.72558 18.0676 7.48795 18.5273 7.00354 18.6571C6.55197 18.7781 6.20725 18.5097 5.96015 17.9159C5.69105 17.24 5.31966 17.1019 4.90093 17.2141C4.33441 17.3659 4.03008 17.905 4.20608 18.5619C4.34687 19.0873 4.78062 19.6223 5.55892 20.2937C6.74118 21.3233 7.17551 21.8933 7.3581 22.5748C7.7629 24.0855 6.77408 25.4856 5.07454 25.941Z" fill="#959595"/>
</svg>
